<?xml version="1.0" standalone="no"?>
<!DOCTYPE svg PUBLIC "-//W3C//DTD SVG 20010904//EN"
 "http://www.w3.org/TR/2001/REC-SVG-20010904/DTD/svg10.dtd">
<svg version="1.0" xmlns="http://www.w3.org/2000/svg"
 width="400.000000pt" height="400.000000pt" viewBox="0 0 400.000000 400.000000"
 preserveAspectRatio="xMidYMid meet">
<metadata>
Created by potrace 1.16, written by Peter Selinger 2001-2019
</metadata>
<g transform="translate(0.000000,400.000000) scale(0.100000,-0.100000)"
fill="#000000" stroke="none">
<path d="M1 3073 c1 -547 5 -899 10 -858 64 541 317 1009 727 1344 258 210
608 368 933 421 l114 18 -892 1 -893 1 1 -927z"/>
<path d="M2328 3980 c706 -114 1319 -629 1552 -1304 68 -195 88 -295 113 -566
2 -19 5 398 5 928 l2 962 -892 -1 -893 -1 113 -18z"/>
<path d="M1825 3964 c-106 -12 -289 -47 -365 -70 -641 -192 -1122 -657 -1327
-1284 -59 -182 -84 -327 -90 -531 -17 -544 170 -1036 542 -1427 427 -449 1039
-664 1665 -587 844 105 1533 763 1681 1605 98 562 -64 1164 -430 1598 -304
360 -704 590 -1170 673 -113 20 -410 33 -506 23z m-367 -627 c8 -9 12 -23 8
-32 -5 -13 -14 -15 -51 -9 -40 6 -45 4 -45 -13 0 -15 12 -23 47 -34 82 -24 98
-98 30 -139 -45 -28 -81 -25 -119 9 -28 25 -30 31 -19 45 17 20 35 20 51 1 16
-19 56 -19 64 0 4 11 -9 22 -49 40 -80 35 -94 95 -33 140 27 19 93 15 116 -8z
m115 -68 c7 -109 40 -146 87 -99 16 16 20 33 20 95 0 61 3 76 18 83 35 18 42
4 42 -86 0 -67 -4 -94 -19 -118 -40 -66 -130 -70 -178 -8 -22 30 -27 48 -31
116 -4 69 -2 83 13 94 32 23 42 7 48 -77z m640 82 c4 0 7 -10 7 -20 0 -16 -8
-20 -42 -23 l-43 -3 -3 -103 -3 -103 -27 3 -27 3 -3 97 c-3 92 -4 98 -26 104
-12 3 -26 4 -32 3 -35 -6 -51 36 -16 43 15 4 196 3 215 -1z m-382 -33 c0 -18
0 -60 0 -93 -1 -33 2 -65 6 -70 5 -6 31 -11 58 -12 28 -1 53 -2 58 -2 4 -1 7
-10 7 -21 0 -19 -7 -20 -89 -20 -72 0 -90 3 -95 16 -8 21 -8 219 1 227 3 4 17
7 30 7 19 0 23 -5 24 -32z m559 -79 c41 -85 52 -114 44 -127 -18 -27 -33 -25
-51 7 -16 28 -22 31 -70 31 -42 0 -53 -4 -58 -19 -8 -27 -30 -42 -49 -35 -26
10 -19 37 36 149 70 140 76 140 148 -6z m185 39 l50 -67 5 67 c5 63 6 67 31
70 15 2 28 -2 31 -10 2 -7 2 -64 0 -125 -4 -112 -4 -113 -28 -113 -18 0 -37
17 -76 70 l-53 71 -5 -68 c-5 -65 -6 -68 -32 -71 l-28 -3 0 126 0 126 28 -3
c20 -2 39 -20 77 -70z m-223 -833 c6 -6 46 29 114 100 58 61 103 101 100 90
-10 -44 -39 -276 -34 -280 2 -2 60 6 128 20 69 13 125 23 126 22 5 -5 -186
-242 -193 -240 -5 1 -105 49 -224 107 l-217 105 34 138 c19 76 37 145 40 153
3 8 28 -31 61 -95 30 -61 60 -114 65 -120z m-578 -8 c24 -37 -69 -144 -148
-170 -38 -13 -41 -16 -44 -55 -2 -23 0 -42 4 -42 4 0 52 14 107 32 l100 32 26
-30 c14 -16 36 -42 48 -57 l22 -29 68 28 c221 89 456 -2 557 -215 29 -62 31
-73 31 -176 0 -103 -2 -114 -32 -177 -56 -119 -149 -200 -274 -239 -99 -31
-210 -19 -311 32 -62 32 -151 121 -183 184 -15 30 -28 55 -29 55 0 -1 -30 -9
-66 -19 l-65 -18 -2 -94 c-4 -116 -8 -136 -33 -149 -15 -8 -24 -6 -40 10 -18
18 -20 33 -20 138 0 118 0 119 -32 163 -83 115 -221 215 -308 221 -32 3 -35 0
-38 -24 -3 -27 -6 -28 -58 -28 l-54 0 0 53 c0 28 -3 82 -7 120 l-6 67 57 0
c43 0 56 -3 56 -15 0 -26 47 -16 220 43 l165 57 3 48 c4 55 3 55 -86 28 -75
-23 -116 -15 -110 20 3 23 24 36 172 104 55 25 127 63 161 84 84 53 124 58
149 18z m576 -214 c169 -82 220 -111 220 -125 0 -10 -7 -21 -16 -25 -17 -6
-444 201 -444 216 0 12 11 41 16 41 2 0 103 -48 224 -107z m-1225 -1195 c26
-24 34 -57 21 -95 -4 -12 -2 -24 4 -28 5 -3 10 -23 10 -44 0 -59 -34 -84 -121
-89 -39 -3 -75 0 -80 5 -10 10 -14 247 -4 262 3 6 37 11 75 11 57 0 73 -4 95
-22z m225 7 c16 -8 34 -24 40 -34 13 -25 13 -77 0 -101 -7 -13 -6 -33 2 -65
11 -39 10 -47 -2 -55 -28 -18 -42 -10 -57 30 -14 34 -21 40 -45 40 -23 0 -28
-4 -28 -24 0 -30 -27 -59 -47 -52 -8 3 -17 6 -19 6 -7 0 -4 256 3 263 12 13
124 7 153 -8z m276 -4 c35 -22 64 -75 64 -121 0 -71 -65 -140 -133 -140 -104
0 -165 103 -123 205 29 68 126 96 192 56z m191 -41 c26 -33 49 -57 53 -53 3 5
26 32 49 61 32 38 50 52 65 50 20 -3 21 -9 24 -132 1 -71 -2 -134 -7 -139 -5
-5 -18 -6 -30 -2 -18 5 -21 15 -23 82 l-3 76 -29 -41 c-38 -55 -64 -55 -102 0
l-29 41 -3 -76 c-2 -65 -6 -77 -22 -82 -11 -4 -24 -3 -30 0 -11 7 -14 257 -3
268 18 19 47 2 90 -53z m410 27 c22 -21 27 -36 27 -68 -2 -56 -36 -89 -98 -96
-44 -5 -46 -7 -46 -38 0 -37 -20 -51 -51 -35 -17 10 -19 22 -19 128 0 81 4
122 13 131 8 9 34 11 80 9 57 -3 71 -8 94 -31z m291 6 c3 -20 -2 -22 -45 -25
l-48 -3 -5 -110 c-5 -109 -5 -110 -30 -110 -25 0 -25 1 -30 110 l-5 110 -47 3
c-38 2 -48 7 -48 21 0 10 3 21 7 25 4 3 61 5 127 4 116 -3 121 -4 124 -25z
m223 -9 c86 -82 39 -230 -78 -241 -147 -14 -206 179 -80 258 46 29 118 22 158
-17z m183 -41 l56 -78 1 35 c1 19 1 42 0 51 -1 9 3 28 9 43 7 20 16 27 33 24
22 -3 22 -6 22 -138 l0 -135 -25 0 c-19 0 -37 16 -80 74 l-55 74 -5 -68 c-5
-75 -24 -101 -54 -76 -13 11 -16 36 -16 136 0 67 3 125 7 128 3 4 16 7 29 7
16 0 37 -21 78 -77z"/>
<path d="M1676 2055 c-50 -17 -91 -36 -93 -41 -3 -8 155 -70 161 -62 1 1 12
19 24 39 12 19 30 44 42 54 15 14 17 21 9 32 -16 19 -42 15 -143 -22z"/>
<path d="M2013 2059 c-35 -12 -63 -25 -63 -28 0 -3 47 -66 105 -139 58 -73
105 -139 105 -147 0 -20 -23 -28 -196 -72 -88 -21 -144 -40 -144 -48 0 -19 54
-88 99 -127 60 -51 162 -83 238 -73 120 15 221 86 269 188 31 68 33 172 4 251
-61 162 -253 252 -417 195z"/>
<path d="M1580 1789 c0 -119 1 -130 18 -125 9 3 36 10 60 16 l42 11 2 69 c1
39 2 79 2 91 1 17 -11 26 -61 45 l-63 23 0 -130z"/>
<path d="M1337 1893 c-13 -3 -2 -16 47 -54 35 -28 72 -61 80 -75 28 -41 36
-28 36 56 l0 80 -72 -1 c-40 -1 -81 -3 -91 -6z"/>
<path d="M1507 962 c-23 -25 -22 -85 1 -105 25 -22 75 -21 95 1 23 25 22 85
-1 105 -25 22 -75 21 -95 -1z"/>
<path d="M2608 970 c-34 -21 -31 -98 6 -122 21 -14 66 -8 86 12 42 42 11 120
-47 120 -16 0 -36 -5 -45 -10z"/>
<path d="M2 948 l-2 -948 2000 0 2000 0 -1 948 c-1 851 -3 935 -15 832 -70
-594 -389 -1111 -889 -1440 -588 -387 -1330 -436 -1964 -130 -524 254 -907
715 -1061 1280 -26 94 -54 256 -63 365 -2 22 -4 -386 -5 -907z"/>
</g>
</svg>
